<svg width="989" height="942" viewBox="0 0 989 942" fill="none" xmlns="http://www.w3.org/2000/svg">
<path d="M512.132 29.958C496.238 32.5321 484.666 35.7835 472.536 40.9315C457.896 47.2989 448.137 53.6662 435.031 65.859C425.41 74.6649 423.458 75.8842 418.997 75.7487C380.237 75.0714 377.309 75.2068 364.342 78.0518C310.385 89.7027 277.342 112.869 260.332 150.938C257.822 156.492 255.313 161.505 254.615 162.047C254.058 162.588 248.76 164.756 243.043 166.788C214.88 176.949 191.875 193.206 171.24 217.592C155.485 236.287 147.119 252.951 141.961 276.523L138.614 291.426L130.528 298.199C84.6572 336.133 63.0464 375.285 59.5608 426.901C58.7242 439.636 58.306 440.991 52.5896 450.609C34.4644 481.227 26.796 507.103 26.6566 537.991C26.6566 568.473 35.7192 597.329 52.8684 620.766C62.4887 633.772 65.9743 642.307 65.9743 652.468C65.9743 673.195 80.0562 707.2 97.2054 727.928C106.407 738.901 139.312 766.267 143.494 766.267C144.47 766.267 149.908 768.435 155.485 771.009C173.192 779.137 198.985 785.776 220.735 787.943C231.192 789.027 236.072 790.111 237.745 791.736C239 792.956 241.649 800.136 243.601 807.452C258.938 863.809 297.14 909.736 344.684 928.973C366.992 938.05 399.059 943.333 421.506 941.708C469.329 938.185 517.709 911.09 534.858 878.034C541.969 864.08 543.085 858.255 544.061 825.876C544.897 797.426 545.176 794.988 548.104 789.975C549.916 786.995 553.541 783.066 556.19 781.305C564.556 775.75 574.455 763.964 577.801 755.7C580.729 748.655 581.147 745.268 581.845 714.515C582.263 696.226 582.82 680.918 583.239 680.511C583.657 680.105 589.931 676.989 597.181 673.466C604.431 669.944 616.979 663.441 625.066 658.835C633.153 654.364 656.018 642.578 675.956 632.553C695.894 622.528 713.74 612.773 715.692 611.012C719.178 607.761 719.178 607.49 719.875 577.55L720.572 547.474L796.558 547.068L872.544 546.797L883.001 551.809C899.872 559.802 912.559 559.396 923.016 550.455C925.804 548.016 928.872 544.223 929.848 541.784C932.497 535.823 932.357 525.798 929.569 520.244C924.828 510.76 912.001 503.445 900.15 503.445C894.852 503.58 884.535 508.186 879.516 512.928C877.285 515.096 873.799 517.263 871.847 517.941C869.895 518.482 834.9 518.889 794.048 518.618L719.735 518.212L720.154 493.284L720.572 468.357L725.452 463.479C731.447 457.383 736.745 454.132 745.25 451.287C751.106 449.39 762.399 449.255 844.938 449.525C937.656 449.932 938.074 450.067 945.463 453.048C958.848 458.467 970.56 456.299 980.877 446.41C988.127 439.365 989.8 434.488 988.685 423.514C987.43 410.915 977.949 403.464 961.637 402.109C947.834 401.025 943.511 402.38 934.867 410.779C922.737 422.295 924.131 422.159 846.89 422.159C810.361 422.159 779.688 421.618 778.712 420.94C776.899 419.856 800.183 397.909 857.208 346.971C867.246 338.165 877.703 328.681 880.492 326.107C885.093 322.043 887.044 321.23 895.689 320.417C914.093 318.385 924.828 308.496 924.828 293.187C924.828 284.787 921.901 279.368 913.675 272.865C907.122 267.853 895.549 265.414 887.881 267.446C876.03 270.698 865.713 279.91 864.318 288.716C863.9 291.019 863.203 295.083 862.785 297.793C862.088 302.128 858.184 306.192 829.602 332.339C741.346 412.812 719.317 432.456 715.274 434.623C706.35 439.229 698.124 437.875 678.466 428.798C668.706 424.192 658.946 418.908 656.715 417.011C650.302 411.05 648.768 398.858 653.509 390.187C654.903 387.613 682.509 361.873 759.889 291.019C774.668 277.472 780.524 271.104 784.149 264.601L788.89 256.202L789.308 233.171C789.447 220.437 790.005 208.786 790.284 207.16C790.702 205.534 793.491 201.334 796.558 197.948C805.76 187.516 807.015 176.272 799.904 165.84C795.303 158.795 786.938 155.002 774.808 154.189C761.423 153.376 753.615 156.628 747.76 165.569C744.413 170.717 743.577 173.562 743.577 179.252C743.577 187.787 746.086 193.206 753.197 200.386L758.216 205.534L758.635 223.552C758.913 233.984 758.495 244.009 757.519 247.125C755.846 253.493 751.245 257.963 689.201 314.456L652.254 348.054L651.557 222.198C650.86 84.9611 651.278 93.6315 643.191 77.9163C631.061 54.8855 599.97 36.0544 563.859 29.958C549.916 27.5195 526.493 27.5195 512.132 29.958ZM572.085 67.2138C590.071 72.2264 602.34 81.9806 609.59 96.8829L613.215 104.47L613.633 250.512L613.912 396.555L598.297 388.697L582.542 380.839L581.705 355.099C580.729 325.43 579.056 317.572 571.109 307.276C568.181 303.618 561.907 297.251 557.027 293.187C542.387 280.859 543.503 286.007 543.503 231.545V183.858L548.522 178.71C555.912 171.259 558.561 165.298 558.561 156.357C558.561 144.435 553.96 136.713 543.921 131.836C535.416 127.636 523.426 126.687 515.618 129.532C504.046 133.868 495.262 145.248 495.123 156.357C495.123 163.808 496.377 166.788 503.07 174.917C505.579 177.897 508.089 181.284 508.786 182.368C509.483 183.452 510.32 206.347 510.738 233.171L511.435 281.942L515.2 289.935C518.128 295.761 522.868 301.315 533.604 311.611C544.897 322.314 548.383 326.514 549.08 330.172C549.498 332.746 549.777 344.803 549.498 357.131L549.08 379.485L539.32 384.497C534.022 387.207 528.863 389.51 528.027 389.51C527.051 389.645 516.176 380.433 503.627 369.053C491.079 357.809 464.867 334.642 445.487 317.572C426.107 300.502 409.516 284.923 408.401 282.891C405.194 276.659 404.497 268.395 405.473 247.125L406.588 226.668L411.886 220.978C421.506 210.818 423.877 200.386 418.857 189.819C410.492 171.801 385.117 167.195 369.641 180.742C362.809 186.703 360.16 192.258 360.16 200.522C360.16 208.65 362.112 213.256 368.246 219.353L373.405 224.501L374.102 253.899L374.799 283.297L379.121 292.103C381.492 296.98 385.674 303.077 388.184 305.786C390.833 308.631 416.627 331.662 445.627 357.131C474.488 382.601 498.19 403.599 498.19 403.87C498.19 404.141 484.247 411.457 467.238 420.398L436.146 436.384H420.809C395.295 436.384 396.41 437.197 316.659 363.634C291.702 340.603 289.053 336.403 289.053 319.334C289.053 310.121 289.193 309.85 295.188 303.754C305.087 293.593 306.342 282.891 299.371 270.833C294.212 262.027 285.289 257.557 272.88 257.557C264.375 257.557 262.144 258.099 256.289 261.621C241.091 270.698 237.885 291.697 250.014 302.264C255.034 306.599 256.986 311.747 256.986 320.417C256.986 324.888 257.683 331.797 258.519 335.726C261.726 350.222 264.515 354.151 285.986 374.743C310.106 397.909 360.16 442.345 369.641 448.984C375.357 453.048 390.973 460.77 402.405 465.241C406.03 466.731 406.17 467.137 406.17 477.162V487.459L352.91 486.917C303.135 486.51 299.092 486.239 293.654 483.801C288.496 481.362 232.726 431.778 224.221 421.888C221.432 418.637 220.735 416.469 220.735 410.102C220.735 404.141 219.899 401.161 217.668 397.774C201.774 375.285 167.894 380.162 160.783 406.173C156.879 420.127 168.869 435.301 185.461 437.468C196.894 438.823 203.307 443.429 235.375 472.963C263.399 498.974 267.861 502.496 278.178 507.373C285.149 510.625 293.375 513.47 298.813 514.283C303.832 514.96 330.044 515.637 357.092 515.637H406.17V535.146C406.17 551.674 405.891 554.79 403.939 555.467C401.011 556.551 215.995 556.551 209.163 555.467C206.375 554.925 200.658 552.622 196.754 550.319C190.899 546.932 188.668 544.494 184.764 537.314C178.769 526.205 174.446 521.734 166.918 518.889C148.653 512.115 126.624 523.901 124.811 541.242C123.975 550.455 126.484 556.687 133.735 562.783C141.403 569.557 149.489 571.724 160.643 570.505C168.591 569.557 169.706 569.828 179.047 574.569C196.476 583.375 196.476 583.375 306.9 583.375H406.17V589.201C406.17 592.317 405.194 596.381 403.939 598.007C402.824 599.632 390.136 611.419 375.775 624.153C358.068 639.868 347.193 648.539 342.035 650.977L334.366 654.5L286.404 654.906C259.914 655.177 236.909 655.042 235.096 654.5C233.284 654.093 230.356 651.384 228.404 648.674C223.106 640.817 215.019 636.888 203.865 636.888C196.057 636.888 193.687 637.565 187.971 640.952C179.466 646.1 174.725 654.229 174.725 663.577C174.725 684.575 197.173 696.226 220.038 687.014L228.404 683.627H280.13C356.116 683.627 353.049 684.711 405.194 638.514C419.694 625.508 423.737 622.663 427.223 622.663C429.872 622.663 442.42 628.218 461.521 637.701L491.498 652.874L488.151 655.855C478.949 664.39 437.261 701.916 415.651 721.289C382.328 750.958 379.819 755.294 378.424 785.505C377.309 805.149 377.309 805.555 366.992 817.883C359.602 826.825 361.554 841.862 371.035 850.397C376.891 855.816 387.626 859.745 396.271 859.745C401.987 859.745 414.117 854.597 417.603 850.804C421.506 846.469 425.689 836.443 425.689 831.024C425.689 823.98 423.598 819.509 417.324 812.871C414.256 809.619 411.468 805.419 410.91 803.387C409.098 796.478 411.468 771.686 414.535 765.454C417.184 760.171 429.035 749.197 501.397 684.169C510.599 676.04 519.104 669.267 520.637 668.996C522.031 668.725 528.445 671.028 534.858 673.873C543.085 677.666 546.849 680.24 548.104 682.814C550.613 688.233 550.474 740.527 547.825 746.488C546.71 749.197 541.969 754.074 536.253 758.409C525.796 766.538 521.195 771.822 516.315 781.169C513.387 786.588 512.969 789.975 511.993 813.683C510.599 843.488 509.204 853.242 504.325 863.538C499.445 874.241 484.805 887.924 471.002 894.698C416.487 921.251 358.626 911.09 316.102 867.467C294.909 845.791 283.476 822.354 275.808 784.556C272.741 768.841 271.904 766.538 268.14 763.151C264.236 759.764 262.981 759.493 253.082 759.493C235.514 759.493 210.976 756.919 199.822 753.939C175.004 747.436 151.023 733.753 134.571 716.954C115.609 697.581 105.571 675.228 101.528 643.933C99.0179 623.611 97.9025 620.766 88.561 609.522C70.4359 587.71 63.0464 566.712 63.0464 536.636C63.0464 511.302 70.7147 486.781 85.0754 466.053C94.6957 452.37 95.2534 450.474 96.09 433.946C97.2054 408.476 101.109 392.626 111.008 374.066C121.605 354.151 135.268 338.707 157.158 321.637C172.076 310.121 173.192 308.36 175.422 293.322C176.398 286.278 178.35 277.472 179.605 273.814C185.461 257.286 197.312 239.268 210.557 226.939C227.428 211.089 242.346 202.825 268.558 194.561C283.895 189.684 287.52 186.568 290.308 175.052C294.073 160.285 305.087 144.164 318.332 134.274C343.011 115.849 377.309 106.637 413.978 108.669C438.656 110.024 442.56 108.669 457.757 93.2251C470.584 80.2194 477.973 75.3423 492.473 70.1942C508.647 64.5043 518.128 63.1495 540.714 63.6914C557.027 64.0978 563.998 64.9107 572.085 67.2138ZM589.373 422.295C646.119 450.203 678.884 467.137 681.254 469.711C683.485 472.421 683.624 477.298 683.624 530.675V588.794L679.163 593.4C672.749 599.903 571.109 650.029 564.416 650.029C561.07 650.029 544.897 642.713 506.974 624.018C477.973 609.657 452.319 596.516 449.81 594.62C447.161 592.723 444.651 589.336 443.814 586.356C442.699 582.969 442.42 563.189 442.699 526.205L443.117 470.931L446.742 467.408C450.925 463.344 557.445 410.102 561.489 409.967C562.883 409.967 575.431 415.521 589.373 422.295Z" fill="#038EFB"/>
<path d="M467.517 491.658V505.883L488.849 506.425C512.969 506.967 518.407 508.593 525.657 517.941C529.003 522.276 529.56 524.037 529.56 532.03C529.56 542.597 527.469 546.255 517.849 552.893C511.993 556.957 511.854 556.957 489.685 557.364L467.517 557.77V572.131V586.356L493.031 585.949L518.546 585.407L529.142 580.259C542.387 574.027 553.681 562.647 558.282 551.268C563.022 539.481 562.743 523.089 557.724 512.386C550.056 496.264 539.041 486.781 521.892 481.633C515.06 479.601 507.253 478.653 490.243 478.111L467.517 477.298V491.658Z" fill="#038EFB"/>
<path d="M619.489 479.194C596.345 482.852 576.686 501.683 572.085 524.443C567.763 545.984 580.032 568.202 601.782 578.633C613.494 584.188 624.787 585.949 649.186 586.085H665.499V572.131V558.041L645.701 557.228C619.628 556.145 617.398 555.603 610.426 548.964C596.763 536.23 599.83 518.753 617.258 509.812C622.278 507.238 625.624 506.831 644.307 506.425L665.499 505.883V491.794V477.704L646.398 477.84C635.802 477.975 623.672 478.517 619.489 479.194Z" fill="#038EFB"/>
<path d="M901.266 593.807C900.429 596.652 900.29 599.226 900.848 599.768C901.405 600.174 912.838 603.425 926.223 606.948C939.608 610.47 951.598 613.586 952.853 613.993C954.526 614.399 955.502 613.18 956.617 608.845C957.454 605.729 958.012 603.019 957.872 602.884C957.175 602.477 904.473 588.794 903.636 588.794C903.078 588.794 901.963 591.097 901.266 593.807Z" fill="#038EFB"/>
<path d="M749.293 623.476C738.697 632.146 734.793 650.571 740.928 662.899C746.505 674.008 759.611 680.782 772.019 678.75C786.938 676.311 800.741 661.003 800.741 646.913C800.741 643.12 800.462 642.984 794.467 642.984C788.611 642.984 788.193 643.255 788.193 646.778C788.193 652.061 783.731 659.377 778.433 662.899C766.582 670.757 750.548 662.222 750.548 647.997C750.548 641.9 752.221 638.378 757.659 632.824L761.563 628.759L757.659 624.289L753.894 619.683L749.293 623.476Z" fill="#038EFB"/>
<path d="M909.352 620.902L891.785 621.444L889.972 627.134C888.299 632.688 888.439 632.824 892.482 636.211C894.713 638.107 905.03 647.049 915.487 656.125L934.309 672.789L936.68 666.963L939.05 661.274L934.17 657.209L929.29 653.145L933.055 642.984L936.819 632.824L943.233 632.417C949.367 632.011 949.786 631.74 951.877 626.592C953.132 623.611 954.108 620.902 954.108 620.631C954.108 619.954 948.391 620.089 909.352 620.902ZM923.574 638.243C922.319 641.63 920.785 644.339 919.949 644.339C918.554 644.339 906.703 633.907 906.703 632.824C906.703 632.417 911.026 632.146 916.324 632.146H925.944L923.574 638.243Z" fill="#038EFB"/>
<path d="M866.688 680.918C865.015 681.595 862.087 684.44 860.135 687.285C851.073 700.697 855.952 711.941 871.01 712.483L877.424 712.754V718.851C877.424 726.031 880.212 730.637 886.208 733.076C897.222 737.546 909.213 726.708 910.886 710.722C911.443 704.219 912.001 703.271 914.79 702.865C916.881 702.594 919.53 700.155 922.179 696.091C924.41 692.704 925.943 689.723 925.804 689.588C925.525 689.317 922.04 689.994 917.857 691.078C913.674 692.162 910.049 693.11 909.91 693.11C909.77 693.11 909.213 690.943 908.655 688.369C907.539 682.543 906.842 682.137 901.684 683.492C897.919 684.44 897.64 684.982 898.059 689.994C898.477 694.736 898.059 695.684 895.688 696.362C894.015 696.768 891.506 697.581 889.972 697.987C887.602 698.529 887.044 697.852 886.347 692.839C884.534 682.408 876.169 677.26 866.688 680.918ZM876.308 692.297C876.866 693.11 877.424 695.413 877.424 697.446C877.424 700.697 876.866 701.239 873.659 701.239C869.755 701.239 864.876 697.852 864.876 695.007C864.876 690.401 873.52 688.369 876.308 692.297ZM899.732 710.451C899.732 719.122 890.251 723.863 886.905 716.954C886.068 715.057 885.789 712.754 886.208 711.67C886.765 710.045 893.458 707.471 898.756 706.793C899.313 706.658 899.732 708.284 899.732 710.451Z" fill="#038EFB"/>
<path d="M713.461 684.169C709.836 685.659 693.663 702.864 692.269 706.522C691.99 707.335 720.154 731.043 734.514 742.152C737.303 744.32 737.582 744.184 741.486 739.578C745.389 734.701 745.389 734.701 742.74 732.534C741.207 731.314 737.303 728.198 733.957 725.489L727.961 720.747L731.447 716.683C735.909 711.399 739.394 704.761 739.394 701.239C739.394 696.633 735.211 689.317 731.168 686.472C726.009 682.814 718.62 681.866 713.461 684.169ZM724.336 698.123C727.683 701.103 727.543 705.303 723.639 710.316L720.433 714.651L713.74 709.096L707.187 703.542L710.952 699.749C715.274 695.278 720.433 694.736 724.336 698.123Z" fill="#038EFB"/>
<path d="M671.076 725.353L666.336 729.282L673.028 738.224C676.793 743.101 679.581 747.571 679.442 748.249C679.023 749.468 665.499 759.493 664.105 759.493C663.687 759.493 660.201 755.564 656.576 750.687C652.951 745.81 649.605 741.881 649.326 741.881C648.908 741.881 646.538 743.507 643.888 745.404L639.148 748.791L656.715 771.415C666.475 783.879 674.562 794.31 674.841 794.581C675.398 795.259 685.019 788.891 685.019 787.808C685.019 787.266 681.812 782.93 677.908 777.918C669.821 767.757 669.264 769.654 681.812 760.848L687.668 756.648L694.918 766.132L702.307 775.615L707.327 771.957L712.485 768.435L695.754 746.623C686.552 734.701 678.326 724.134 677.49 723.186C676.235 721.967 674.841 722.373 671.076 725.353Z" fill="#038EFB"/>
<path d="M819.842 744.726C816.496 748.926 816.357 749.333 818.448 753.261C823.607 763.151 844.381 800.813 844.939 801.491C845.357 801.897 847.448 800.136 849.54 797.562L853.583 792.956L850.794 787.672C847.588 781.576 847.727 781.305 857.487 770.467L862.785 764.641L868.362 766.809L873.939 769.112L877.843 764.777C880.074 762.474 881.328 760.035 880.631 759.493C880.074 758.951 867.665 754.616 853.025 750.01C838.525 745.268 825.837 741.204 825.001 740.933C824.025 740.662 821.794 742.288 819.842 744.726ZM843.684 758.68C847.588 760.035 850.934 761.525 850.934 761.932C850.794 763.016 842.847 771.686 841.871 771.686C841.314 771.686 834.9 760.442 832.948 756.242C832.669 755.564 833.366 755.293 834.342 755.7C835.458 756.106 839.64 757.461 843.684 758.68Z" fill="#038EFB"/>
<path d="M788.332 776.563L774.111 789.704L777.875 793.498L781.779 797.426L786.798 792.685L791.957 787.808L808.13 804.471L824.303 821.135L828.626 817.07L832.808 812.871L816.635 796.072L800.322 779.273L805.621 774.666L810.779 770.06L807.573 766.809C805.899 765.048 804.087 763.558 803.529 763.558C802.972 763.558 796.14 769.383 788.332 776.563Z" fill="#038EFB"/>
<path d="M754.313 804.742L750.409 807.858L758.217 836.172C762.678 851.752 766.443 864.758 766.721 865.029C767 865.3 769.51 864.08 772.159 862.319C775.923 859.881 776.899 858.39 776.342 856.358C773.693 846.875 773.553 847.146 782.755 840.101L791.4 833.463L796.977 836.443L802.693 839.424L807.991 835.901L813.429 832.244L786.659 816.799C772.02 808.4 759.611 801.491 759.192 801.491C758.635 801.626 756.404 802.981 754.313 804.742ZM773.693 822.083C777.736 824.521 781.222 826.96 781.222 827.366C781.222 828.721 771.322 835.766 770.625 834.953C769.51 833.869 764.63 817.748 765.467 817.748C765.885 817.748 769.51 819.78 773.693 822.083Z" fill="#038EFB"/>
<path d="M714.995 831.566C709 833.598 696.173 841.185 696.173 842.675C696.173 843.623 721.827 887.517 723.639 889.55C724.755 890.769 737.442 883.182 743.716 877.357C750.13 871.26 753.337 864.758 753.337 857.035C753.337 852.429 747.481 840.778 743.437 837.121C736.187 830.618 724.476 828.315 714.995 831.566ZM728.24 842.946C736.327 846.062 740.37 853.378 739.673 863.403C739.394 866.79 732.981 874.647 730.471 874.647C728.798 874.647 712.206 848.23 712.206 845.52C712.206 844.436 717.644 841.998 722.245 840.914C722.524 840.778 725.173 841.727 728.24 842.946Z" fill="#038EFB"/>
<path d="M652.393 859.068C638.033 863.945 631.062 878.17 635.523 892.937C638.172 901.878 643.889 908.652 652.115 912.445C659.783 916.103 665.918 915.967 674.701 912.039C688.226 905.942 693.663 893.614 688.504 880.744C687.25 877.357 685.995 874.647 685.716 874.647C685.437 874.647 679.999 876.679 673.586 878.983C662.014 883.453 662.014 883.453 663.269 887.111C664.802 891.582 664.802 891.446 672.331 888.872L678.048 886.976V891.311C678.048 897.136 674.98 901.201 668.985 903.097C659.365 906.213 649.047 897.949 647.792 886.298C647.374 882.776 647.792 878.305 648.768 876.002C651.696 869.228 661.735 865.841 668.427 869.364C670.797 870.583 671.495 870.041 673.168 865.977C675.817 859.881 675.956 860.287 670.937 858.526C665.081 856.629 659.086 856.765 652.393 859.068Z" fill="#038EFB"/>
<path d="M616.84 871.26C614.191 872.073 611.821 873.428 611.542 874.105C611.402 874.783 614.47 886.976 618.513 901.065L625.763 926.941L631.34 925.722C634.407 925.044 637.056 924.367 637.196 924.231C637.614 923.96 622.556 870.312 621.999 869.906C621.72 869.77 619.489 870.312 616.84 871.26Z" fill="#038EFB"/>
<path d="M580.869 878.847C565.392 881.015 566.229 878.17 572.224 909.058C575.152 923.96 577.801 936.289 578.219 936.56C579.195 937.508 604.71 931.547 607.777 929.515C609.59 928.431 612.1 925.586 613.354 923.148C615.167 919.625 615.306 918 614.052 913.8C612.378 908.245 606.801 903.097 602.619 903.097C599.412 903.097 599.273 901.336 602.061 899.033C605.547 896.188 604.85 886.027 600.667 882.099C598.854 880.202 596.345 878.712 595.229 878.712C594.114 878.712 592.441 878.441 591.325 878.17C590.349 877.899 585.609 878.305 580.869 878.847ZM591.325 889.821C594.811 893.208 592.162 899.304 586.446 900.93C583.936 901.742 583.378 901.201 582.542 897.407C581.984 894.969 581.287 891.853 581.008 890.498C580.45 888.601 581.147 888.195 584.912 888.195C587.561 888.195 590.349 888.872 591.325 889.821ZM598.715 911.226C602.479 913.258 602.2 920.032 598.297 922.606C592.58 926.128 588.397 925.857 587.282 922.064C585.47 915.696 585.888 911.497 588.537 910.819C592.859 909.736 595.926 909.871 598.715 911.226Z" fill="#038EFB"/>
</svg>
