<svg width="1097" height="700" viewBox="0 0 1097 700" fill="none" xmlns="http://www.w3.org/2000/svg">
<path d="M932.383 62.2308C871.602 64.5609 842.011 68.1245 811.353 76.4854C715.249 102.939 639.806 169.003 598.751 262.481C573.559 319.911 566.361 382.686 577.958 442.446C602.084 565.255 704.186 662.159 835.879 686.967C874.667 694.369 891.462 695.191 1002.63 695.191L1097 695.328V611.719V528.11L1077.41 527.973C1025.82 527.699 930.517 523.45 895.061 519.749C853.874 515.501 842.011 512.622 824.149 502.754C790.56 484.113 759.902 444.09 748.839 404.753C744.44 388.717 744.707 368.157 749.639 351.298C757.103 325.667 769.499 304.422 788.827 284.274C807.221 265.085 830.148 250.556 856.54 241.51C887.597 230.819 909.324 229.311 1017.42 230.545L1097 231.367V147.073V62.7791H1043.42C1013.83 62.7791 979.569 62.5049 967.039 62.2308C954.643 61.9567 939.048 61.9567 932.383 62.2308Z" fill="#038EFB"/>
<path d="M56.3829 63.7385L0 64.1497V148.444V232.738H93.8381C187.276 232.738 204.738 233.423 225.931 237.672C275.383 247.815 314.304 276.187 335.098 317.718C359.091 365.553 354.292 418.734 321.769 462.594C303.908 486.717 278.715 505.358 247.925 517.556C221 528.11 212.869 528.796 100.103 528.796H2.66586V613.638V698.481L66.3798 699.44C145.956 700.811 217.8 699.577 238.594 696.699C319.236 685.46 386.283 652.427 439.866 597.328C516.376 518.653 545.834 405.438 517.043 300.585C502.381 247.267 474.922 199.706 435.334 159.409C384.816 107.873 321.502 78.4043 238.594 67.7134C215.801 64.835 171.415 62.7791 139.291 63.0532C124.629 63.3273 87.3068 63.6014 56.3829 63.7385Z" fill="#038EFB"/>
</svg>
